# xmcd
# Track frame offsets:
# 150
# 10772
# 24097
# 34866
# 46384
# 55146
# 63594
# 79395
# 90998
# 102640
# 114794
# 125357
# 139390
# 150075
# 162618
# 174694
# 191108
# 204518
#
# Disc length: 2845 seconds
# Revision: 0
# Processed by: cddbd v1.4PL0 Copyright (c) Steve Scherf et al.
# Submitted via: VisiTrax 2.9.5.180 - For more info visit www.synapsa.com
#
DISCID=ec0b1b12
DTITLE=Various Artist - Country Complete  Volume 2 Disc 2
DYEAR=2001
DGENRE=
TTITLE0=Willie Nelson - Blue Eyes Crying In The Rain
TTITLE1=Tammy Wynette - D-I-V-O-R-C-E
TTITLE2=Johnny Cash - Daddy Sang Bass
TTITLE3=Reeves, Jim and West, Dottie - Love Is No Excuse
TTITLE4=Don Gibson - Blue Blue Day
TTITLE5=Susan Raye - I've Got A Happy Heart
TTITLE6=Kris Kristofferson - Why Me
TTITLE7=Wynn Stewart - It's Such A Pretty World Today
TTITLE8=Sammi Smith - Help Me Make It Through The Night
TTITLE9=Charlie Rich - Rollin' With The Flow
TTITLE10=Connie Smith - Once A Day
TTITLE11=Glen Campbell - Country Boy
TTITLE12=Sonny James - Empty Arms
TTITLE13=La Costa - Get On My Love Train
TTITLE14=Billie Jo Spears - Misty Blue
TTITLE15=Michael Murphey - Wildfire
TTITLE16=BJ Thomas - I Just Can't Help Believing
TTITLE17=Faron Young - Alone With You
EXTD=EMI Australia
EXTT0=
EXTT1=
EXTT2=
EXTT3=
EXTT4=
EXTT5=
EXTT6=
EXTT7=
EXTT8=
EXTT9=
EXTT10=
EXTT11=
EXTT12=
EXTT13=
EXTT14=
EXTT15=
EXTT16=
EXTT17=
PLAYORDER=
